<svg xmlns="http://www.w3.org/2000/svg" viewBox="0 0 512 512" role="img" aria-label="SEIKA ロープレ">
  <!-- R625: 墨ブラシストロークのアイコン — 紙白の角丸に太い墨のS字（先細り・かすれ筋）＋墨だまり＋飛沫。icon-*.png と同一ジオメトリ（_gen_icons.mjs生成） -->
  <defs>
    <linearGradient id="paper" x1="0" y1="0" x2="0" y2="1">
      <stop offset="0" stop-color="#fbfaf7"/><stop offset="1" stop-color="#edece7"/>
    </linearGradient>
    <clipPath id="rr"><rect width="512" height="512" rx="104"/></clipPath>
  </defs>
  <rect width="512" height="512" rx="104" fill="url(#paper)"/>
  <g clip-path="url(#rr)">
    <path d="M344.2 58.9L345.3 62.5L347.1 66.8L349.4 71.7L352.2 77.0L355.2 82.8L358.4 88.9L361.7 95.3L364.8 101.9L367.8 108.6L370.3 115.3L372.5 121.9L374.1 128.3L375.0 134.4L375.2 140.0L374.6 145.0L373.3 149.4L371.2 154.0L368.3 158.9L364.8 164.0L360.6 169.3L355.8 174.8L350.5 180.4L344.8 186.0L338.6 191.7L332.1 197.4L325.3 203.0L318.3 208.7L311.1 214.3L303.9 219.9L296.7 225.4L289.4 230.8L282.6 235.8L276.2 240.4L269.1 244.8L261.2 249.2L252.7 253.6L243.6 258.1L234.2 262.5L224.6 267.0L214.9 271.6L205.3 276.2L195.8 281.1L186.5 286.1L177.6 291.5L169.1 297.4L161.0 304.0L153.5 311.9L147.0 321.5L142.5 332.8L140.5 344.3L140.5 355.2L141.9 365.5L144.3 375.2L147.3 384.3L150.9 392.9L154.7 401.1L158.7 408.8L162.6 416.1L166.4 422.7L169.8 428.7L172.8 433.9L174.9 438.1L176.0 440.7L176.7 442.8L235.3 417.2L233.0 412.6L229.7 406.9L226.2 401.5L222.5 396.1L218.8 390.5L215.0 384.8L211.3 379.0L207.8 373.2L204.7 367.5L202.0 362.1L199.9 357.2L198.5 353.0L197.7 349.8L197.4 347.7L197.2 346.8L197.0 346.5L197.4 345.2L199.4 342.4L202.9 338.7L207.8 334.4L214.0 329.8L221.2 325.0L229.2 320.0L237.8 314.9L246.8 309.7L256.2 304.4L265.6 298.9L275.0 293.3L284.2 287.4L293.2 281.3L301.7 274.8L309.4 268.2L316.0 261.7L322.5 255.3L329.1 248.7L335.8 241.9L342.5 235.0L349.0 228.1L355.5 221.0L361.7 213.8L367.6 206.6L373.1 199.4L378.2 192.0L382.8 184.7L386.9 177.2L390.2 169.8L392.9 162.3L394.7 154.6L395.4 146.6L394.9 138.7L393.3 130.9L390.9 123.4L387.8 116.1L384.3 109.1L380.3 102.2L376.2 95.6L371.9 89.3L367.6 83.3L363.4 77.6L359.4 72.5L355.7 67.8L352.5 63.6L349.8 60.1L347.8 57.1Z" fill="#16171b"/>
    <polyline points="309.0 225.7,301.8 231.4,294.7 237.0,288.0 242.3,281.3 247.3,273.9 252.1,265.8 256.8,257.1 261.5,248.0 266.2,238.6 270.9,229.1 275.6,219.5 280.3,210.1 285.0,200.9 289.8,192.0 294.8,183.7 300.1,175.8 305.6,168.7 311.7,162.3 318.5,157.0 326.5,153.4 335.6,151.9 345.0,151.9 354.1,153.2 363.0,155.4 371.6,158.3 379.8,161.6 387.8,165.3 395.5,169.2 402.9,173.1 409.8,176.9 416.3" fill="none" stroke="#f7f6f2" stroke-width="2.6" stroke-linecap="round" opacity=".75"/>
    <polyline points="297.6 269.3,289.3 275.4,280.5 281.3,271.4 286.9,262.1 292.4,252.6 297.7,243.3 302.9,234.2 308.0,225.4 313.0,217.2 317.9,209.6 322.8,203.0 327.5,197.5 332.1,193.2 336.2,190.4 339.8,189.0 342.5,188.5 344.6,188.3 347.2,188.5 350.6,189.4 355.0,191.0 360.1,193.3 365.7,196.1 371.6,199.3 377.6,202.9 383.7,206.6 389.8,210.4 395.7,214.1 401.3,217.6 406.7" fill="none" stroke="#f7f6f2" stroke-width="2" stroke-linecap="round" opacity=".75"/>
    <ellipse cx="219.8" cy="424.6" rx="30.6" ry="28.3" transform="rotate(1 219.8 424.6)" fill="#16171b"/><ellipse cx="198.1" cy="419.3" rx="16.8" ry="9.5" transform="rotate(36 198.1 419.3)" fill="#16171b"/><ellipse cx="206.4" cy="429.0" rx="21.5" ry="20.9" transform="rotate(58 206.4 429.0)" fill="#16171b"/><ellipse cx="205.8" cy="428.0" rx="13.6" ry="8.6" transform="rotate(136 205.8 428.0)" fill="#16171b"/><ellipse cx="244.5" cy="416.8" rx="11.7" ry="8.9" transform="rotate(159 244.5 416.8)" fill="#16171b"/><ellipse cx="181.9" cy="449.3" rx="21.1" ry="13.9" transform="rotate(78 181.9 449.3)" fill="#16171b"/><ellipse cx="201.2" cy="431.0" rx="10.0" ry="9.7" transform="rotate(109 201.2 431.0)" fill="#16171b"/><ellipse cx="185.8" cy="443.6" rx="14.1" ry="13.3" transform="rotate(37 185.8 443.6)" fill="#16171b"/><ellipse cx="198.8" cy="440.1" rx="20.7" ry="14.5" transform="rotate(34 198.8 440.1)" fill="#16171b"/><ellipse cx="246.4" cy="423.2" rx="14.4" ry="10.7" transform="rotate(13 246.4 423.2)" fill="#16171b"/><ellipse cx="204.8" cy="431.9" rx="14.8" ry="13.2" transform="rotate(55 204.8 431.9)" fill="#16171b"/><ellipse cx="261.5" cy="430.5" rx="21.6" ry="18.0" transform="rotate(121 261.5 430.5)" fill="#16171b"/><ellipse cx="209.5" cy="444.4" rx="36.0" ry="22.5" transform="rotate(74 209.5 444.4)" fill="#16171b"/><ellipse cx="205.3" cy="432.3" rx="21.1" ry="21.1" transform="rotate(107 205.3 432.3)" fill="#16171b"/><ellipse cx="268.7" cy="435.5" rx="20.2" ry="11.4" transform="rotate(139 268.7 435.5)" fill="#16171b"/><ellipse cx="201.1" cy="421.3" rx="26.9" ry="19.5" transform="rotate(79 201.1 421.3)" fill="#16171b"/><ellipse cx="180.1" cy="418.3" rx="25.1" ry="14.1" transform="rotate(172 180.1 418.3)" fill="#16171b"/><ellipse cx="177.7" cy="451.7" rx="8.5" ry="8.0" transform="rotate(92 177.7 451.7)" fill="#16171b"/><ellipse cx="213.9" cy="430.8" rx="27.9" ry="20.4" transform="rotate(155 213.9 430.8)" fill="#16171b"/><ellipse cx="206.5" cy="430.1" rx="31.2" ry="21.4" transform="rotate(174 206.5 430.1)" fill="#16171b"/><ellipse cx="203.3" cy="430.2" rx="26.5" ry="17.5" transform="rotate(35 203.3 430.2)" fill="#16171b"/><ellipse cx="206.1" cy="430.0" rx="25.5" ry="22.3" transform="rotate(78 206.1 430.0)" fill="#16171b"/><ellipse cx="286.5" cy="388.3" rx="9.6" ry="6.8" transform="rotate(314 286.5 388.3)" fill="#16171b"/><ellipse cx="168.2" cy="361.6" rx="8.1" ry="7.6" transform="rotate(255 168.2 361.6)" fill="#16171b"/><ellipse cx="313.3" cy="489.6" rx="5.0" ry="3.5" transform="rotate(48 313.3 489.6)" fill="#16171b"/><ellipse cx="242.6" cy="403.3" rx="8.5" ry="8.4" transform="rotate(304 242.6 403.3)" fill="#16171b"/><ellipse cx="51.8" cy="440.9" rx="9.1" ry="8.6" transform="rotate(172 51.8 440.9)" fill="#16171b"/><ellipse cx="234.5" cy="353.7" rx="7.5" ry="5.1" transform="rotate(281 234.5 353.7)" fill="#16171b"/><ellipse cx="302.4" cy="474.0" rx="3.4" ry="2.3" transform="rotate(42 302.4 474.0)" fill="#16171b"/><ellipse cx="108.5" cy="407.5" rx="3.4" ry="2.8" transform="rotate(205 108.5 407.5)" fill="#16171b"/><ellipse cx="183.4" cy="400.4" rx="3.0" ry="1.8" transform="rotate(249 183.4 400.4)" fill="#16171b"/><ellipse cx="135.5" cy="446.8" rx="7.5" ry="7.1" transform="rotate(154 135.5 446.8)" fill="#16171b"/><ellipse cx="316.4" cy="422.1" rx="7.1" ry="5.3" transform="rotate(352 316.4 422.1)" fill="#16171b"/><ellipse cx="158.5" cy="473.2" rx="9.8" ry="8.4" transform="rotate(119 158.5 473.2)" fill="#16171b"/>
    <line x1="128.8" y1="423.3" x2="130.1" y2="392.3" stroke="#16171b" stroke-width="4.9" stroke-linecap="round"/><line x1="140.2" y1="422.8" x2="138.4" y2="389.3" stroke="#16171b" stroke-width="4.5" stroke-linecap="round"/><line x1="150.0" y1="426.5" x2="149.4" y2="363.7" stroke="#16171b" stroke-width="4.3" stroke-linecap="round"/><line x1="157.1" y1="425.2" x2="152.0" y2="359.7" stroke="#16171b" stroke-width="5.4" stroke-linecap="round"/><line x1="167.4" y1="418.4" x2="167.1" y2="399.9" stroke="#16171b" stroke-width="4.5" stroke-linecap="round"/><line x1="177.2" y1="425.7" x2="175.5" y2="372.3" stroke="#16171b" stroke-width="3.8" stroke-linecap="round"/><line x1="189.6" y1="421.2" x2="181.5" y2="391.9" stroke="#16171b" stroke-width="4.9" stroke-linecap="round"/><line x1="195.2" y1="422.6" x2="195.3" y2="383.2" stroke="#16171b" stroke-width="3.8" stroke-linecap="round"/>
    <circle cx="408.4" cy="330.2" r="0.86" fill="#16171b"/><circle cx="67.9" cy="217.9" r="1.17" fill="#16171b"/><circle cx="200.4" cy="316.5" r="0.80" fill="#16171b"/><circle cx="87.6" cy="334.7" r="4.71" fill="#16171b"/><circle cx="361.7" cy="66.8" r="0.81" fill="#16171b"/><circle cx="446.7" cy="300.2" r="3.35" fill="#16171b"/><circle cx="62.9" cy="260.8" r="1.08" fill="#16171b"/><circle cx="300.8" cy="402.1" r="0.80" fill="#16171b"/><circle cx="101.2" cy="196.1" r="2.42" fill="#16171b"/><circle cx="298.0" cy="385.5" r="1.46" fill="#16171b"/><circle cx="352.0" cy="139.0" r="0.81" fill="#16171b"/><circle cx="135.0" cy="160.3" r="0.99" fill="#16171b"/><circle cx="97.3" cy="407.0" r="1.70" fill="#16171b"/><circle cx="202.9" cy="457.9" r="2.41" fill="#16171b"/><circle cx="158.7" cy="406.0" r="2.57" fill="#16171b"/><circle cx="152.6" cy="464.2" r="2.72" fill="#16171b"/><circle cx="260.6" cy="361.0" r="3.84" fill="#16171b"/><circle cx="118.0" cy="50.0" r="0.81" fill="#16171b"/><circle cx="363.8" cy="408.9" r="3.80" fill="#16171b"/><circle cx="356.2" cy="353.2" r="2.99" fill="#16171b"/><circle cx="217.9" cy="434.2" r="3.61" fill="#16171b"/><circle cx="285.2" cy="112.2" r="4.88" fill="#16171b"/><circle cx="57.4" cy="333.9" r="3.52" fill="#16171b"/><circle cx="264.3" cy="152.6" r="0.81" fill="#16171b"/><circle cx="52.4" cy="390.2" r="1.22" fill="#16171b"/><circle cx="152.4" cy="54.9" r="1.60" fill="#16171b"/><circle cx="433.4" cy="271.2" r="2.43" fill="#16171b"/><circle cx="206.9" cy="331.3" r="1.79" fill="#16171b"/><circle cx="284.6" cy="351.3" r="4.65" fill="#16171b"/><circle cx="135.4" cy="350.6" r="2.43" fill="#16171b"/><circle cx="255.0" cy="363.0" r="1.36" fill="#16171b"/><circle cx="138.4" cy="316.0" r="2.04" fill="#16171b"/><circle cx="187.9" cy="384.4" r="2.40" fill="#16171b"/><circle cx="247.5" cy="403.9" r="5.98" fill="#16171b"/><circle cx="203.3" cy="89.8" r="2.68" fill="#16171b"/><circle cx="287.2" cy="360.7" r="1.87" fill="#16171b"/><circle cx="89.0" cy="422.5" r="3.90" fill="#16171b"/><circle cx="313.6" cy="231.9" r="2.34" fill="#16171b"/><circle cx="313.6" cy="419.9" r="2.30" fill="#16171b"/><circle cx="164.9" cy="346.8" r="1.05" fill="#16171b"/><circle cx="201.6" cy="311.3" r="1.39" fill="#16171b"/><circle cx="247.3" cy="323.3" r="1.29" fill="#16171b"/><circle cx="272.3" cy="61.9" r="2.36" fill="#16171b"/><circle cx="143.9" cy="392.0" r="1.19" fill="#16171b"/><circle cx="215.5" cy="249.8" r="0.81" fill="#16171b"/><circle cx="158.2" cy="313.5" r="1.55" fill="#16171b"/><circle cx="297.6" cy="246.6" r="1.85" fill="#16171b"/><circle cx="41.5" cy="264.3" r="1.73" fill="#16171b"/><circle cx="221.7" cy="120.2" r="2.17" fill="#16171b"/><circle cx="218.3" cy="192.9" r="1.20" fill="#16171b"/><circle cx="114.1" cy="413.5" r="3.35" fill="#16171b"/><circle cx="235.0" cy="273.2" r="2.10" fill="#16171b"/><circle cx="206.8" cy="328.2" r="1.37" fill="#16171b"/><circle cx="97.0" cy="299.5" r="2.85" fill="#16171b"/><circle cx="408.3" cy="381.0" r="1.54" fill="#16171b"/><circle cx="300.8" cy="389.6" r="2.52" fill="#16171b"/><circle cx="320.2" cy="345.9" r="1.11" fill="#16171b"/><circle cx="190.4" cy="423.9" r="4.93" fill="#16171b"/><circle cx="127.1" cy="374.7" r="1.04" fill="#16171b"/><circle cx="221.7" cy="443.6" r="1.33" fill="#16171b"/><circle cx="94.4" cy="394.9" r="2.54" fill="#16171b"/><circle cx="135.7" cy="234.1" r="1.04" fill="#16171b"/><circle cx="414.4" cy="462.9" r="1.53" fill="#16171b"/><circle cx="136.8" cy="56.8" r="0.84" fill="#16171b"/><circle cx="362.6" cy="359.9" r="1.78" fill="#16171b"/><circle cx="282.6" cy="335.3" r="3.11" fill="#16171b"/><circle cx="348.7" cy="278.4" r="3.85" fill="#16171b"/><circle cx="195.0" cy="122.6" r="3.04" fill="#16171b"/><circle cx="88.8" cy="153.1" r="2.79" fill="#16171b"/><circle cx="233.7" cy="360.9" r="2.01" fill="#16171b"/><circle cx="198.2" cy="417.4" r="1.20" fill="#16171b"/><circle cx="217.1" cy="350.6" r="4.97" fill="#16171b"/><circle cx="304.9" cy="346.1" r="2.49" fill="#16171b"/><circle cx="337.5" cy="297.1" r="2.30" fill="#16171b"/><circle cx="110.3" cy="302.6" r="2.48" fill="#16171b"/><circle cx="353.8" cy="309.1" r="0.95" fill="#16171b"/><circle cx="362.4" cy="48.5" r="1.30" fill="#16171b"/><circle cx="356.2" cy="467.4" r="1.78" fill="#16171b"/><circle cx="107.6" cy="355.7" r="1.75" fill="#16171b"/><circle cx="118.5" cy="217.1" r="3.13" fill="#16171b"/><circle cx="215.0" cy="341.6" r="3.83" fill="#16171b"/><circle cx="265.6" cy="298.4" r="1.52" fill="#16171b"/><circle cx="311.5" cy="294.6" r="3.42" fill="#16171b"/><circle cx="211.4" cy="81.4" r="1.02" fill="#16171b"/>
  </g>
  <rect x="1" y="1" width="510" height="510" rx="103" fill="none" stroke="#000000" stroke-opacity=".08" stroke-width="2"/>
</svg>
